<?xml version="1.0" encoding="iso-8859-1"?>
<!-- Uploaded to: SVG Repo, www.svgrepo.com, Generator: SVG Repo Mixer Tools -->
<svg version="1.1" id="Layer_1" xmlns="http://www.w3.org/2000/svg" xmlns:xlink="http://www.w3.org/1999/xlink" 
	 viewBox="0 0 508.1 508.1" xml:space="preserve">
<path style="fill:#334A5E;" d="M460.4,131.95H47.6c-9.7,0-17.4,7.8-17.4,17.4v307.3h158.5c0,5.4,4.4,9.7,9.7,9.7h111.3
	c5.4,0,9.7-4.4,9.7-9.7h158.5v-307.2C477.8,139.75,470,131.95,460.4,131.95z"/>
<rect x="64" y="165.85" style="fill:#FFFFFF;" width="379.9" height="258.7"/>
<path style="fill:#40596B;" d="M319.4,456.65c0,5.4-4.4,9.7-9.7,9.7H198.4c-5.4,0-9.7-4.4-9.7-9.7H0v20.3
	c0,17.2,13.9,31.1,31.1,31.1H477c17.2,0,31.1-13.9,31.1-31.1v-20.3H319.4z"/>
<polygon style="fill:#F2F2F2;" points="101.7,168.25 0.1,168.25 50.9,100.05 132.1,100.05 "/>
<polygon style="fill:#FF7058;" points="203.2,168.25 101.7,168.25 132.1,100.05 213.4,100.05 "/>
<polygon style="fill:#F2F2F2;" points="304.8,168.25 203.2,168.25 213.4,100.05 294.6,100.05 "/>
<polygon style="fill:#FF7058;" points="406.4,168.25 304.8,168.25 294.6,100.05 375.9,100.05 "/>
<polygon style="fill:#F2F2F2;" points="507.9,168.25 406.4,168.25 375.9,100.05 457.2,100.05 "/>
<g>
	<path style="fill:#F1543F;" d="M101.7,184.75c0,28,22.7,50.8,50.8,50.8s50.8-22.7,50.8-50.8v-16.5H101.7V184.75z"/>
	<path style="fill:#F1543F;" d="M304.8,168.25v16.5c0,28,22.7,50.8,50.8,50.8s50.8-22.7,50.8-50.8v-16.5H304.8z"/>
</g>
<g>
	<path style="fill:#CDD6E0;" d="M0.1,184.75c0,28,22.7,50.8,50.8,50.8c28,0,50.8-22.7,50.8-50.8v-16.5H0.1V184.75z"/>
	<path style="fill:#CDD6E0;" d="M203.2,184.75c0,28,22.7,50.8,50.8,50.8l0,0c28,0,50.8-22.7,50.8-50.8v-16.5H203.2V184.75z"/>
	<path style="fill:#CDD6E0;" d="M406.4,168.25v16.5c0,28,22.7,50.8,50.8,50.8c28,0,50.8-22.7,50.8-50.8v-16.5H406.4z"/>
</g>
<rect x="50.9" y="0.05" style="fill:#FFD15C;" width="401.4" height="100"/>
<g>
	<path style="fill:#FFFFFF;" d="M77,50.25c0-3.7,0.6-6.9,1.7-9.4c0.8-1.9,2-3.6,3.4-5c1.4-1.5,3-2.6,4.7-3.3c2.3-1,4.9-1.5,7.9-1.5
		c5.4,0,9.7,1.7,13,5c3.3,3.4,4.9,8,4.9,14c0,5.9-1.6,10.6-4.8,13.9c-3.2,3.4-7.5,5-12.9,5c-5.5,0-9.8-1.7-13-5
		C78.6,60.75,77,56.15,77,50.25z M84.7,50.05c0,4.2,1,7.3,2.9,9.5c1.9,2.1,4.4,3.2,7.3,3.2c3,0,5.4-1.1,7.3-3.2
		c1.9-2.1,2.8-5.3,2.8-9.6c0-4.2-0.9-7.4-2.8-9.4c-1.8-2.1-4.3-3.1-7.4-3.1s-5.5,1-7.4,3.1C85.6,42.65,84.7,45.75,84.7,50.05z"/>
	<path style="fill:#FFFFFF;" d="M118.5,68.45v-36.8h7.2l15,24.5v-24.5h6.9v36.7h-7.4l-14.8-24v24h-6.9V68.45z"/>
	<path style="fill:#FFFFFF;" d="M155.7,68.45v-36.5h7.4v30.3h18.4v6.2C181.5,68.45,155.7,68.45,155.7,68.45z"/>
	<path style="fill:#FFFFFF;" d="M186.7,68.45v-36.8h7.4v36.7h-7.4V68.45z"/>
	<path style="fill:#FFFFFF;" d="M201.2,68.45v-36.8h7.2l15,24.5v-24.5h6.9v36.7h-7.4l-14.8-24v24h-6.9V68.45z"/>
	<path style="fill:#FFFFFF;" d="M238.2,68.45v-36.8h27.2v6.2h-19.8v8.2h18.5v6.2h-18.5v10h20.5v6.2
		C266.1,68.45,238.2,68.45,238.2,68.45z"/>
	<path style="fill:#FFFFFF;" d="M284.9,56.45l7.2-0.7c0.4,2.4,1.3,4.2,2.6,5.3c1.3,1.1,3.1,1.7,5.4,1.7c2.4,0,4.2-0.5,5.4-1.5
		c1.2-1,1.8-2.2,1.8-3.5c0-0.9-0.3-1.6-0.8-2.2c-0.5-0.6-1.4-1.1-2.7-1.6c-0.9-0.3-2.8-0.8-5.9-1.6c-4-1-6.8-2.2-8.4-3.6
		c-2.3-2-3.4-4.5-3.4-7.4c0-1.9,0.5-3.6,1.6-5.3c1.1-1.6,2.6-2.9,4.6-3.7c2-0.9,4.4-1.3,7.2-1.3c4.6,0,8.1,1,10.4,3s3.6,4.7,3.7,8.1
		l-7.4,0.3c-0.3-1.9-1-3.2-2-4.1c-1-0.8-2.6-1.2-4.7-1.2c-2.2,0-3.8,0.4-5.1,1.3c-0.8,0.6-1.2,1.3-1.2,2.3c0,0.9,0.4,1.6,1.1,2.2
		c0.9,0.8,3.2,1.6,6.8,2.5c3.6,0.9,6.3,1.7,8,2.6c1.7,0.9,3.1,2.2,4.1,3.7c1,1.6,1.5,3.5,1.5,5.9c0,2.1-0.6,4.1-1.8,5.9
		c-1.2,1.8-2.8,3.2-5,4.1c-2.1,0.9-4.8,1.3-8,1.3c-4.6,0-8.2-1.1-10.7-3.2C286.8,63.65,285.3,60.55,284.9,56.45z"/>
	<path style="fill:#FFFFFF;" d="M321,68.45v-36.8h7.4v14.5H343v-14.5h7.4v36.7H343v-16h-14.5v16.1H321z"/>
	<path style="fill:#FFFFFF;" d="M356.6,50.25c0-3.7,0.6-6.9,1.7-9.4c0.8-1.9,2-3.6,3.4-5c1.4-1.5,3-2.6,4.7-3.3
		c2.3-1,4.9-1.5,7.9-1.5c5.4,0,9.7,1.7,13,5c3.3,3.4,4.9,8,4.9,14c0,5.9-1.6,10.6-4.8,13.9c-3.2,3.4-7.5,5-12.9,5
		c-5.5,0-9.8-1.7-13-5C358.2,60.75,356.6,56.15,356.6,50.25z M364.2,50.05c0,4.2,1,7.3,2.9,9.5s4.4,3.2,7.3,3.2c3,0,5.4-1.1,7.3-3.2
		c1.9-2.1,2.8-5.3,2.8-9.6c0-4.2-0.9-7.4-2.8-9.4c-1.8-2.1-4.3-3.1-7.4-3.1s-5.5,1-7.4,3.1C365.1,42.65,364.2,45.75,364.2,50.05z"/>
	<path style="fill:#FFFFFF;" d="M398,68.45v-36.8h11.9c4.5,0,7.5,0.2,8.8,0.6c2.1,0.6,3.9,1.8,5.3,3.6s2.1,4.2,2.1,7.2
		c0,2.3-0.4,4.2-1.2,5.7c-0.8,1.5-1.9,2.7-3.1,3.6c-1.3,0.9-2.5,1.5-3.8,1.7c-1.8,0.4-4.3,0.5-7.7,0.5h-4.8v13.9
		C405.5,68.45,398,68.45,398,68.45z M405.4,37.85v10.4h4.1c2.9,0,4.9-0.2,5.9-0.6c1-0.4,1.8-1,2.3-1.8c0.6-0.8,0.8-1.8,0.8-2.9
		c0-1.3-0.4-2.4-1.2-3.3c-0.8-0.9-1.8-1.4-3-1.6c-0.9-0.2-2.7-0.3-5.3-0.3h-3.6V37.85z"/>
</g>
<path style="fill:#84DBFF;" d="M313,291.65L313,291.65c-4.9-1.4-8.2-6-7.6-11.1l0,0c0.7-6.9-5.4-12.6-12.2-11.3
	c-5,0.9-10-1.9-11.7-6.7l0,0c-2.3-6.5-10.3-9-15.9-4.9l0,0c-4.1,3-9.8,2.6-13.4-1l0,0c-4.9-4.9-13.2-3.6-16.4,2.5l0,0
	c-2.4,4.5-7.7,6.6-12.5,4.9l0,0c-6.6-2.2-13.4,2.5-13.7,9.4l0,0c-0.2,5.1-4.1,9.3-9.1,9.9l0,0c-6.9,0.8-11,8.1-8.3,14.4l0,0
	c2,4.7,0.3,10.1-3.9,12.9l0,0c-5.9,3.7-6.5,12.1-1.2,16.6l0,0c3.8,3.3,4.7,9,2,13.3l0,0c-3.6,5.9-0.6,13.6,6.1,15.5l0,0
	c4.9,1.3,8.1,6,7.6,11.1l0,0c-0.7,6.9,5.4,12.6,12.2,11.3c5-0.9,10,1.9,11.7,6.7l0,0c2.3,6.5,10.3,9,15.9,4.9l0,0
	c4.1-3,9.8-2.6,13.4,1l0,0c4.9,4.9,13.2,3.6,16.4-2.5l0,0c2.4-4.5,7.7-6.6,12.5-4.9l0,0c6.6,2.2,13.4-2.5,13.7-9.4l0,0
	c0.2-5.1,4.1-9.3,9.1-9.9l0,0c6.9-0.8,11-8.1,8.3-14.4l0,0c-2-4.7-0.3-10.1,3.9-12.9l0,0c5.9-3.7,6.5-12.1,1.2-16.6l0,0
	c-3.8-3.3-4.7-9-2-13.3l0,0C322.8,301.15,319.7,293.45,313,291.65z"/>
<g>
	<path style="fill:#FFFFFF;" d="M210.8,350.25l6.4-3.3c0.8,1.4,1.8,2.4,3.1,2.9s2.5,0.5,3.7,0c1.4-0.5,2.3-1.6,2.9-3.1
		c0.5-1.5,0.3-3.4-0.6-5.7c-0.8-2.1-2-3.5-3.3-4.2c-1.4-0.7-2.8-0.7-4.4-0.1c-1.9,0.8-3.3,2.3-4.1,4.6l-5.7,1.4l-3.7-19.4l17.6-7
		l2.5,6.2l-12.6,5l1.3,6.3c1.2-1.3,2.6-2.3,4.1-2.9c3-1.2,5.9-1.1,8.8,0.3c2.9,1.3,5,3.7,6.4,7.2c1.1,2.9,1.3,5.7,0.5,8.6
		c-1.1,4-3.6,6.7-7.6,8.3c-3.2,1.3-6.2,1.4-8.9,0.5C214.4,354.85,212.3,352.95,210.8,350.25z"/>
	<path style="fill:#FFFFFF;" d="M238.7,309.15c3.4-1.3,6.5-1.2,9.3,0.5c3.4,2,6.4,6.2,9,12.8s3.3,11.8,2.2,15.5
		c-0.9,3.1-3.1,5.3-6.5,6.7c-3.4,1.3-6.6,1.1-9.7-0.7c-3.1-1.8-6-6-8.6-12.7c-2.6-6.5-3.3-11.7-2.2-15.5
		C233.2,312.75,235.3,310.55,238.7,309.15z M240.9,314.75c-0.8,0.3-1.4,0.9-1.9,1.6c-0.4,0.8-0.6,1.9-0.4,3.3c0.2,1.9,1.1,4.9,2.8,9
		c1.6,4.1,2.9,6.8,3.9,8.2c1,1.4,1.9,2.2,2.8,2.4c0.8,0.3,1.6,0.2,2.4-0.1c0.8-0.3,1.4-0.9,1.9-1.6c0.4-0.8,0.6-1.9,0.4-3.3
		c-0.2-1.9-1.1-4.9-2.7-9c-1.6-4.1-2.9-6.8-3.9-8.2c-1-1.4-1.9-2.2-2.8-2.4C242.5,314.35,241.7,314.35,240.9,314.75z"/>
	<path style="fill:#FFFFFF;" d="M258,311.65c-1.2-3.1-1.5-5.7-0.7-7.7s2.3-3.5,4.7-4.5c2.4-1,4.6-1,6.6,0s3.6,3,4.8,6.1
		c1.2,3.1,1.5,5.7,0.7,7.7s-2.3,3.5-4.7,4.5c-2.4,1-4.6,1-6.6,0C260.8,316.85,259.2,314.75,258,311.65z M263.1,309.55
		c0.9,2.3,1.8,3.7,2.6,4.2c0.6,0.4,1.3,0.5,2,0.2s1.2-0.8,1.3-1.5c0.2-1-0.1-2.6-1-4.9s-1.7-3.7-2.5-4.2c-0.6-0.4-1.3-0.5-2-0.2
		s-1.1,0.8-1.3,1.5C261.9,305.65,262.2,307.35,263.1,309.55z M281.5,334.15l-4.9,1.9l4-44l4.8-1.9L281.5,334.15z M288.7,320.75
		c-1.2-3.1-1.5-5.7-0.7-7.7s2.3-3.5,4.7-4.5c2.4-0.9,4.6-0.9,6.5,0c2,1,3.6,3,4.8,6.1c1.2,3.1,1.5,5.7,0.7,7.8
		c-0.8,2-2.3,3.5-4.7,4.5c-2.4,1-4.6,1-6.6,0C291.5,325.95,289.9,323.95,288.7,320.75z M293.9,318.75c0.9,2.3,1.8,3.7,2.6,4.2
		c0.6,0.4,1.3,0.5,2,0.2s1.1-0.8,1.3-1.5c0.2-1-0.1-2.6-1-4.9s-1.7-3.7-2.6-4.3c-0.6-0.4-1.3-0.5-2-0.2s-1.1,0.8-1.3,1.5
		C292.6,314.85,293,316.45,293.9,318.75z"/>
</g>
</svg>