<svg xmlns="http://www.w3.org/2000/svg" width="64" height="64" enable-background="new 0 0 64 64" viewBox="0 0 64 64" id="order-list"><g><g><path fill="#1B181C" d="M49.413,52.184c-0.446,0-0.808,0.361-0.808,0.819v0.337c0,1.326-1.098,2.436-2.436,2.436H14.202
			c-1.338,0-2.435-1.109-2.435-2.436V13.537c0-1.35,1.097-2.435,2.435-2.435h7.052v0.796c0,1.35,1.085,2.459,2.435,2.459h12.995
			c1.338,0,2.435-1.109,2.435-2.459v-0.796h7.052c1.338,0,2.436,1.085,2.436,2.435v7.956c0,0.458,0.361,0.82,0.808,0.82
			c0.458,0,0.819-0.362,0.819-0.82v-7.956c0-2.242-1.82-4.05-4.063-4.05h-7.052v-0.82c0-1.35-1.097-2.435-2.435-2.435H33.32
			c-0.362-1.398-1.627-2.435-3.134-2.435s-2.773,1.037-3.134,2.435h-3.363c-1.35,0-2.435,1.085-2.435,2.435v0.82h-7.052
			c-2.242,0-4.063,1.808-4.063,4.05V53.34c0,2.242,1.82,4.051,4.063,4.051H46.17c2.242,0,4.063-1.809,4.063-4.051v-0.337
			C50.232,52.545,49.871,52.184,49.413,52.184z M30.186,5.412c0.892,0,1.627,0.723,1.627,1.615c0,0.916-0.735,1.639-1.627,1.639
			s-1.627-0.723-1.627-1.639C28.559,6.135,29.294,5.412,30.186,5.412z M22.869,8.667c0-0.458,0.374-0.82,0.82-0.82h3.363
			c0.361,1.398,1.627,2.436,3.134,2.436s2.772-1.037,3.134-2.436h3.363c0.445,0,0.808,0.362,0.808,0.82v3.231
			c0,0.458-0.362,0.819-0.808,0.819H23.688c-0.446,0-0.82-0.361-0.82-0.819V8.667z"></path></g><g><path fill="#1B181C" d="M22.953,19.467c0-1.326-1.097-2.435-2.435-2.435h-2.447c-1.338,0-2.435,1.109-2.435,2.435v2.435
			c0,1.35,1.097,2.435,2.435,2.435h2.447c1.338,0,2.435-1.085,2.435-2.435V19.467z M21.326,21.902c0,0.458-0.361,0.82-0.808,0.82
			h-2.447c-0.446,0-0.808-0.362-0.808-0.82v-2.435c0-0.434,0.361-0.795,0.808-0.795h2.447c0.446,0,0.808,0.361,0.808,0.795V21.902z"></path></g><g><path fill="#1B181C" d="M22.953,30.847c0-1.35-1.097-2.435-2.435-2.435h-2.447c-1.338,0-2.435,1.085-2.435,2.435v2.435
			c0,1.351,1.097,2.436,2.435,2.436h2.447c1.338,0,2.435-1.085,2.435-2.436V30.847z M21.326,33.281c0,0.459-0.361,0.82-0.808,0.82
			h-2.447c-0.446,0-0.808-0.361-0.808-0.82v-2.435c0-0.434,0.361-0.819,0.808-0.819h2.447c0.446,0,0.808,0.386,0.808,0.819V33.281z"></path></g><g><path fill="#1B181C" d="M20.518,39.768h-2.447c-1.338,0-2.435,1.108-2.435,2.459v2.435c0,1.326,1.097,2.435,2.435,2.435h2.447
			c1.338,0,2.435-1.108,2.435-2.435v-2.435C22.953,40.876,21.856,39.768,20.518,39.768z M21.326,44.661
			c0,0.458-0.361,0.796-0.808,0.796h-2.447c-0.446,0-0.808-0.338-0.808-0.796v-2.435c0-0.459,0.361-0.82,0.808-0.82h2.447
			c0.446,0,0.808,0.361,0.808,0.82V44.661z"></path></g><g><path fill="#1B181C" d="M44.735,20.697c0-0.458-0.373-0.82-0.819-0.82H26.955c-0.446,0-0.808,0.362-0.808,0.82
			c0,0.458,0.362,0.796,0.808,0.796h16.961C44.362,21.493,44.735,21.155,44.735,20.697z"></path></g><g><path fill="#1B181C" d="M26.955,32.872h0.012h8.028c0.458,0,0.82-0.362,0.82-0.82c0-0.434-0.362-0.82-0.82-0.82l0,0l-8.04,0.024
			c-0.446,0-0.808,0.361-0.808,0.795C26.147,32.51,26.509,32.872,26.955,32.872z"></path></g><g><path fill="#1B181C" d="M26.955,44.251h8.86c0.446,0,0.808-0.361,0.808-0.819c0-0.434-0.361-0.796-0.808-0.796h-8.86
			c-0.446,0-0.808,0.362-0.808,0.796C26.147,43.89,26.509,44.251,26.955,44.251z"></path></g><g><path fill="#1B181C" d="M58.755,31.232h-2.303c0.615-0.747,0.988-1.712,0.988-2.772c0-2.435-1.977-4.412-4.424-4.412
			c-1.76,0-3.278,1.037-3.989,2.532c-0.64-0.603-1.483-0.964-2.424-0.964c-2.001,0-3.628,1.639-3.628,3.641
			c0,0.723,0.217,1.422,0.603,1.977h-3.496c-0.458,0-0.819,0.386-0.819,0.82v4.556c0,0.458,0.361,0.82,0.819,0.82h0.398v11.5
			c0,0.458,0.361,0.819,0.808,0.819h16.249c0.446,0,0.82-0.361,0.82-0.819v-11.5h0.397c0.458,0,0.819-0.362,0.819-0.82v-4.556
			C59.574,31.618,59.213,31.232,58.755,31.232z M57.947,35.813h-7.715v-2.941h2.784c0.049,0,0.085,0,0.133,0h4.798V35.813z
			 M50.232,28.46c0-1.543,1.254-2.797,2.784-2.797c1.543,0,2.797,1.254,2.797,2.797c0,1.519-1.218,2.749-2.736,2.772h-2.845v-1.977
			V28.46z M44.591,29.256c0-1.109,0.904-2.025,2.013-2.025c1.098,0,2.002,0.916,2.002,2.025v1.977h-2.074
			C45.459,31.208,44.591,30.316,44.591,29.256z M40.891,32.872h5.641c0.024,0,0.049,0,0.072,0h2.002v2.941h-7.715V32.872z
			 M42.107,37.429h6.498v10.704h-6.498V37.429z M56.729,48.133h-6.497V37.429h6.497V48.133z"></path></g></g><line x1="41.461" x2="49.418" y1="36.898" y2="42.636" fill="none" stroke="#1B181C" stroke-miterlimit="10"></line><line x1="49.418" x2="42.107" y1="42.636" y2="48.133" fill="none" stroke="#1B181C" stroke-miterlimit="10"></line><line x1="49.418" x2="56.729" y1="42.636" y2="37.429" fill="none" stroke="#1B181C" stroke-miterlimit="10"></line><line x1="49.418" x2="58.357" y1="42.636" y2="48.133" fill="none" stroke="#1B181C" stroke-miterlimit="10"></line><line x1="13.355" x2="12.853" y1="10.684" y2="56.48" fill="none" stroke="#1B181C" stroke-miterlimit="10"></line><line x1="21.26" x2="17.264" y1="18.212" y2="21.902" fill="none" stroke="#1B181C" stroke-miterlimit="10"></line><line x1="17.264" x2="21.762" y1="29.755" y2="34.397" fill="none" stroke="#1B181C" stroke-miterlimit="10"></line><line x1="21.762" x2="17.264" y1="40.126" y2="45.385" fill="none" stroke="#1B181C" stroke-miterlimit="10"></line></svg>